<svg width="810" height="796" viewBox="0 0 810 796" fill="none" xmlns="http://www.w3.org/2000/svg">
<g filter="url(#filter0_b)">
<path d="M403.5 796L277.493 349.75L529.507 349.75L403.5 796Z" fill="#23272B"/>
</g>
<g filter="url(#filter1_d)">
<path d="M148 76L23.2924 274H225.5L148 76Z" fill="#23272B"/>
<path d="M148 76L23.2924 274H225.5L148 76Z" fill="#23272B"/>
<path d="M344.179 756.918L17.5 310.599L218.417 310.599L344.179 756.918Z" fill="#919191"/>
<path d="M457.622 763.301L789.5 314.564L583.529 314.564L457.622 763.301Z" fill="#919191"/>
<path d="M270 264L394.708 66H192.5L270 264Z" fill="#919191"/>
<path d="M270 264L394.708 66H192.5L270 264Z" fill="#919191"/>
<path d="M541 264L416.292 66H618.5L541 264Z" fill="#919191"/>
<path d="M541 264L416.292 66H618.5L541 264Z" fill="#919191"/>
</g>
<path d="M403 123L527.708 321H278.292L403 123Z" fill="#23272B"/>
<path d="M666 75L790.708 273H588.5L666 75Z" fill="#23272B"/>
<path d="M666 75L790.708 273H588.5L666 75Z" fill="#23272B"/>
<defs>
<filter id="filter0_b" x="273.493" y="345.75" width="260.013" height="454.25" filterUnits="userSpaceOnUse" color-interpolation-filters="sRGB">
<feFlood flood-opacity="0" result="BackgroundImageFix"/>
<feGaussianBlur in="BackgroundImage" stdDeviation="2"/>
<feComposite in2="SourceAlpha" operator="in" result="effect1_backgroundBlur"/>
<feBlend mode="normal" in="SourceGraphic" in2="effect1_backgroundBlur" result="shape"/>
</filter>
<filter id="filter1_d" x="0" y="0" width="793.5" height="797.648" filterUnits="userSpaceOnUse" color-interpolation-filters="sRGB">
<feFlood flood-opacity="0" result="BackgroundImageFix"/>
<feColorMatrix in="SourceAlpha" type="matrix" values="0 0 0 0 0 0 0 0 0 0 0 0 0 0 0 0 0 0 127 0"/>
<feOffset dy="4"/>
<feGaussianBlur stdDeviation="2"/>
<feColorMatrix type="matrix" values="0 0 0 0 0 0 0 0 0 0 0 0 0 0 0 0 0 0 0.25 0"/>
<feBlend mode="normal" in2="BackgroundImageFix" result="effect1_dropShadow"/>
<feBlend mode="normal" in="SourceGraphic" in2="effect1_dropShadow" result="shape"/>
</filter>
</defs>
</svg>
